HIERARCHY
ROOT root
{
	OFFSET 0.000000 0.000000 0.000000
	CHANNELS 6 Xposition Yposition Zposition Zrotation Yrotation Xrotation
	JOINT lhip
	{
		OFFSET 0.058581 -0.082280 -0.017664
		CHANNELS 3 Zrotation Yrotation Xrotation
		JOINT lknee
		{
			OFFSET 0.043451 -0.386469 0.008037
			CHANNELS 3 Zrotation Yrotation Xrotation
			JOINT lankle
			{
				OFFSET -0.014790 -0.426874 -0.037428
				CHANNELS 3 Zrotation Yrotation Xrotation
				JOINT ltoe
				{
					OFFSET 0.041054 -0.060286 0.122042
					CHANNELS 3 Zrotation Yrotation Xrotation
					End Site
					{
						OFFSET 0.000000 0.000000 0.000000
					}
				}
			}
		}
	}
	JOINT rhip
	{
		OFFSET -0.060310 -0.090513 -0.013543
		CHANNELS 3 Zrotation Yrotation Xrotation
		JOINT rknee
		{
			OFFSET -0.043257 -0.383688 -0.004843
			CHANNELS 3 Zrotation Yrotation Xrotation
			JOINT rankle
			{
				OFFSET 0.019056 -0.420046 -0.034562
				CHANNELS 3 Zrotation Yrotation Xrotation
				JOINT rtoe
				{
					OFFSET -0.034840 -0.062106 0.130323
					CHANNELS 3 Zrotation Yrotation Xrotation
					End Site
					{
						OFFSET 0.000000 0.000000 0.000000
					}
				}
			}
		}
	}
	JOINT lowerback
	{
		OFFSET 0.004439 0.124404 -0.038385
		CHANNELS 3 Zrotation Yrotation Xrotation
		JOINT upperback
		{
			OFFSET 0.004488 0.137956 0.026820
			CHANNELS 3 Zrotation Yrotation Xrotation
			JOINT chest
			{
				OFFSET -0.002265 0.056032 0.002855
				CHANNELS 3 Zrotation Yrotation Xrotation
				JOINT lowerneck
				{
					OFFSET -0.013390 0.211636 -0.033468
					CHANNELS 3 Zrotation Yrotation Xrotation
					JOINT upperneck
					{
						OFFSET 0.010113 0.088937 0.050410
						CHANNELS 3 Zrotation Yrotation Xrotation
						End Site
						{
							OFFSET 0.000000 0.000000 0.000000
						}
					}
				}
				JOINT lclavicle
				{
					OFFSET 0.071702 0.114000 -0.018898
					CHANNELS 3 Zrotation Yrotation Xrotation
					JOINT lshoulder
					{
						OFFSET 0.122921 0.045205 -0.019046
						CHANNELS 3 Zrotation Yrotation Xrotation
						JOINT lelbow
						{
							OFFSET 0.255332 -0.015649 -0.022946
							CHANNELS 3 Zrotation Yrotation Xrotation
							JOINT lwrist
							{
								OFFSET 0.265709 0.012698 -0.007375
								CHANNELS 3 Zrotation Yrotation Xrotation
								End Site
								{
									OFFSET 0.000000 0.000000 0.000000
								}
							}
						}
					}
				}
				JOINT rclavicle
				{
					OFFSET -0.082954 0.112472 -0.023707
					CHANNELS 3 Zrotation Yrotation Xrotation
					JOINT rshoulder
					{
						OFFSET -0.113228 0.046853 -0.008472
						CHANNELS 3 Zrotation Yrotation Xrotation
						JOINT relbow
						{
							OFFSET -0.260127 -0.014369 -0.031269
							CHANNELS 3 Zrotation Yrotation Xrotation
							JOINT rwrist
							{
								OFFSET -0.269108 0.006794 -0.006027
								CHANNELS 3 Zrotation Yrotation Xrotation
								End Site
								{
									OFFSET 0.000000 0.000000 0.000000
								}
							}
						}
					}
				}
			}
		}
	}
}
MOTION
Frames: 7
Frame Time: 0.033333
0.874041 0.832656 0.975830 -85.855245 -0.415264 92.420789 14.574832 0.566196 9.102581 -3.214687 -12.621852 9.202401 -12.203626 0.454541 -20.186742 0.000000 -0.000000 0.000000 -11.407976 -0.932806 -17.245662 2.489844 -5.415131 14.730856 9.849041 -1.359913 -6.230727 0.000000 -0.000000 0.000000 4.398212 -6.804814 9.482020 8.219207 -9.390599 9.706735 4.631128 -5.369855 -5.554053 -0.988789 -2.358427 13.214592 0.742483 -1.148545 12.654424 -25.383303 -13.621013 10.420577 -59.832842 -20.670594 8.519754 15.936932 -36.330923 3.701795 -19.414390 -10.727402 3.770259 24.884566 2.787768 8.884179 53.947043 -7.833940 -2.329041 -18.163924 12.306772 -5.518842 24.441023 0.268069 1.774706 
0.861929 0.845306 0.981552 -86.407229 -1.781421 92.919035 14.218609 0.708387 8.548020 -3.621305 -12.782650 9.405541 -13.008547 -0.203189 -20.300511 0.000000 -0.000000 0.000000 -11.682023 -1.093316 -16.734703 2.450557 -4.633384 14.047125 10.008322 -0.951166 -6.676133 0.000000 -0.000000 0.000000 4.270652 -6.238381 9.767731 8.190935 -9.189040 9.750092 4.590162 -5.228152 -5.363499 -0.976529 -1.903287 12.282408 0.415880 -1.781939 12.451591 -24.929466 -13.643370 9.845180 -59.202654 -20.230995 9.033622 15.286197 -37.962809 5.144151 -21.470559 -10.452942 3.648428 25.239701 3.211965 8.556783 52.719493 -7.152953 -2.303127 -18.138720 12.253667 -6.528389 25.517409 0.044003 1.308577 
0.849982 0.857291 0.986363 -87.163096 -3.031826 92.899968 13.675876 0.951022 8.372108 -3.704621 -12.049862 9.408140 -13.147577 0.042950 -20.572870 0.000000 -0.000000 0.000000 -11.886401 -1.122137 -15.699234 2.369253 -3.944165 13.349042 10.057964 -0.500367 -7.157180 0.000000 -0.000000 0.000000 4.036147 -5.674658 10.492362 7.884620 -8.842431 9.458963 4.359081 -4.935344 -4.439029 -0.664556 -1.297296 10.923938 0.148886 -2.751887 12.511400 -24.258494 -13.108850 8.802133 -58.783870 -19.749728 9.482898 14.827890 -38.635411 5.554243 -20.941720 -11.177497 3.760116 25.626492 3.604692 7.483183 51.563540 -5.815156 -1.729252 -18.251374 11.321997 -7.263724 24.815650 -0.449540 2.777030 
0.837892 0.868391 0.989897 -87.622376 -4.164567 93.121769 13.096164 0.681424 7.686573 -3.683852 -10.864210 9.160250 -12.679362 0.850641 -20.605180 0.000000 -0.000000 0.000000 -12.143793 -1.036394 -14.940541 2.376249 -3.440457 12.899700 9.825071 -0.409511 -7.736614 0.000000 -0.000000 0.000000 3.853204 -5.183384 10.402014 7.541170 -8.581521 9.538059 4.025548 -4.647730 -3.810549 -0.647275 -0.773546 10.520523 0.092771 -3.478339 11.959021 -23.900610 -12.402098 8.140129 -58.313299 -18.863948 9.700351 15.040990 -38.416472 4.570906 -19.190438 -12.048271 3.251621 25.848527 4.018221 6.686062 50.384553 -4.657843 -0.742425 -18.172111 11.264081 -7.132760 22.728603 -0.590289 4.497005 
0.826908 0.878347 0.991947 -87.407411 -5.143266 93.568569 12.825606 0.666224 5.928430 -3.640614 -10.040574 9.227316 -11.883722 1.678413 -20.600647 0.000000 -0.000000 0.000000 -12.670774 -1.104723 -14.540985 2.748607 -3.455178 12.732383 9.659495 -0.486165 -8.496823 0.000000 -0.000000 0.000000 3.823119 -4.866514 10.053551 7.187835 -8.372864 9.134944 3.618771 -4.430870 -3.171880 -0.473769 -0.371948 10.050207 0.068116 -4.026210 11.927938 -24.028760 -11.407641 7.553362 -57.462791 -17.904172 9.723178 14.992027 -37.466682 3.763202 -17.445517 -12.849732 2.959566 26.223475 4.366535 5.857819 48.686449 -3.430015 0.094608 -17.401413 11.438239 -6.927443 20.111262 -0.016905 5.986936 
0.814382 0.888133 0.994079 -87.754448 -5.807824 93.080000 12.758047 0.544304 5.538412 -3.419335 -9.339192 8.681745 -11.728202 2.441196 -20.428421 0.000000 -0.000000 0.000000 -12.724882 -1.252649 -12.989608 3.005145 -3.052218 12.360553 9.509477 -0.125785 -9.188059 0.000000 -0.000000 0.000000 3.528824 -4.252072 10.484855 6.881228 -7.929372 9.215936 3.494806 -4.063225 -2.885253 -0.362930 0.083400 9.662957 -0.129155 -4.441253 12.191914 -24.362372 -10.513751 7.079890 -56.383265 -16.338757 9.371559 14.638110 -36.681372 3.598093 -16.981249 -12.733809 3.175680 26.803023 4.946110 5.342082 46.733442 -2.003720 0.300927 -16.836420 11.761879 -7.464726 18.130136 0.436688 6.625675 
0.802514 0.896970 0.996061 -88.234040 -6.383893 92.475344 12.753595 0.636197 4.870045 -3.336346 -8.779411 8.524983 -11.554326 2.758472 -20.086406 0.000000 -0.000000 0.000000 -12.623516 -1.465711 -11.400948 3.037878 -2.425554 12.010588 9.236786 0.286776 -9.812246 0.000000 -0.000000 0.000000 3.250664 -3.471124 10.902815 6.510592 -7.456491 9.402940 3.408148 -3.723144 -2.768836 -0.469168 0.423621 9.796266 -0.539998 -4.417114 12.293640 -24.451044 -9.702013 6.889625 -55.427479 -14.533467 8.717666 13.866145 -36.239617 3.408792 -16.301497 -12.111489 3.706437 26.887200 5.855177 5.001238 45.521238 -0.272589 0.377295 -16.452748 11.942140 -8.767986 15.526816 0.900044 7.372770 
